<mxfile host="Electron" agent="Mozilla/5.0 (Windows NT 10.0; Win64; x64) AppleWebKit/537.36 (KHTML, like Gecko) draw.io/27.0.9 Chrome/134.0.6998.205 Electron/35.4.0 Safari/537.36" version="27.0.9" pages="3">
  <diagram id="C5RBs43oDa-KdzZeNtuy" name="Page-1">
    <mxGraphModel dx="1490" dy="671" grid="1" gridSize="10" guides="1" tooltips="1" connect="1" arrows="1" fold="1" page="0" pageScale="1" pageWidth="827" pageHeight="1169" math="0" shadow="0">
      <root>
        <mxCell id="WIyWlLk6GJQsqaUBKTNV-0" />
        <mxCell id="WIyWlLk6GJQsqaUBKTNV-1" parent="WIyWlLk6GJQsqaUBKTNV-0" />
        <mxCell id="WIyWlLk6GJQsqaUBKTNV-2" value="" style="rounded=0;html=1;jettySize=auto;orthogonalLoop=1;fontSize=11;endArrow=block;endFill=0;endSize=8;strokeWidth=1;shadow=0;labelBackgroundColor=none;edgeStyle=orthogonalEdgeStyle;" parent="WIyWlLk6GJQsqaUBKTNV-1" source="WIyWlLk6GJQsqaUBKTNV-3" target="SyRuRjjnVnQmzEbLA03D-1" edge="1">
          <mxGeometry relative="1" as="geometry">
            <mxPoint x="220" y="180" as="targetPoint" />
          </mxGeometry>
        </mxCell>
        <mxCell id="WIyWlLk6GJQsqaUBKTNV-3" value="Megnyitja az oldalt" style="rounded=1;whiteSpace=wrap;html=1;fontSize=12;glass=0;strokeWidth=1;shadow=0;" parent="WIyWlLk6GJQsqaUBKTNV-1" vertex="1">
          <mxGeometry x="160" y="80" width="120" height="40" as="geometry" />
        </mxCell>
        <mxCell id="SyRuRjjnVnQmzEbLA03D-3" value="Nem" style="edgeStyle=orthogonalEdgeStyle;shape=connector;rounded=0;orthogonalLoop=1;jettySize=auto;html=1;exitX=1;exitY=0.5;exitDx=0;exitDy=0;shadow=0;strokeColor=default;strokeWidth=1;align=center;verticalAlign=middle;fontFamily=Helvetica;fontSize=11;fontColor=default;labelBackgroundColor=none;endArrow=block;endFill=0;endSize=8;" edge="1" parent="WIyWlLk6GJQsqaUBKTNV-1" source="SyRuRjjnVnQmzEbLA03D-1" target="SyRuRjjnVnQmzEbLA03D-2">
          <mxGeometry x="-0.1111" y="10" relative="1" as="geometry">
            <mxPoint as="offset" />
          </mxGeometry>
        </mxCell>
        <mxCell id="SyRuRjjnVnQmzEbLA03D-8" value="Igen" style="edgeStyle=orthogonalEdgeStyle;shape=connector;rounded=0;orthogonalLoop=1;jettySize=auto;html=1;exitX=0.5;exitY=1;exitDx=0;exitDy=0;shadow=0;strokeColor=default;strokeWidth=1;align=center;verticalAlign=middle;fontFamily=Helvetica;fontSize=11;fontColor=default;labelBackgroundColor=none;endArrow=block;endFill=0;endSize=8;" edge="1" parent="WIyWlLk6GJQsqaUBKTNV-1" source="SyRuRjjnVnQmzEbLA03D-1" target="SyRuRjjnVnQmzEbLA03D-6">
          <mxGeometry x="-0.875" y="20" relative="1" as="geometry">
            <mxPoint as="offset" />
          </mxGeometry>
        </mxCell>
        <mxCell id="SyRuRjjnVnQmzEbLA03D-1" value="TeamID" style="rhombus;whiteSpace=wrap;html=1;shadow=0;fontFamily=Helvetica;fontSize=12;align=center;strokeWidth=1;spacing=6;spacingTop=-4;" vertex="1" parent="WIyWlLk6GJQsqaUBKTNV-1">
          <mxGeometry x="170" y="180" width="100" height="80" as="geometry" />
        </mxCell>
        <mxCell id="SyRuRjjnVnQmzEbLA03D-45" style="edgeStyle=orthogonalEdgeStyle;shape=connector;rounded=0;orthogonalLoop=1;jettySize=auto;html=1;exitX=0.5;exitY=1;exitDx=0;exitDy=0;shadow=0;strokeColor=default;strokeWidth=1;align=center;verticalAlign=middle;fontFamily=Helvetica;fontSize=11;fontColor=default;labelBackgroundColor=none;endArrow=block;endFill=0;endSize=8;" edge="1" parent="WIyWlLk6GJQsqaUBKTNV-1" source="SyRuRjjnVnQmzEbLA03D-2">
          <mxGeometry relative="1" as="geometry">
            <mxPoint x="220" y="300" as="targetPoint" />
            <Array as="points">
              <mxPoint x="420" y="300" />
            </Array>
          </mxGeometry>
        </mxCell>
        <mxCell id="SyRuRjjnVnQmzEbLA03D-2" value="Regisztáció" style="rounded=1;whiteSpace=wrap;html=1;fontSize=12;glass=0;strokeWidth=1;shadow=0;" vertex="1" parent="WIyWlLk6GJQsqaUBKTNV-1">
          <mxGeometry x="360" y="200" width="120" height="40" as="geometry" />
        </mxCell>
        <mxCell id="SyRuRjjnVnQmzEbLA03D-13" value="quizStarted" style="edgeStyle=orthogonalEdgeStyle;shape=connector;rounded=0;orthogonalLoop=1;jettySize=auto;html=1;exitX=1;exitY=0.5;exitDx=0;exitDy=0;shadow=0;strokeColor=default;strokeWidth=1;align=center;verticalAlign=middle;fontFamily=Helvetica;fontSize=11;fontColor=default;labelBackgroundColor=none;endArrow=block;endFill=0;endSize=8;" edge="1" parent="WIyWlLk6GJQsqaUBKTNV-1" source="SyRuRjjnVnQmzEbLA03D-6" target="SyRuRjjnVnQmzEbLA03D-14">
          <mxGeometry x="-0.1111" y="10" relative="1" as="geometry">
            <mxPoint x="360" y="460" as="targetPoint" />
            <mxPoint as="offset" />
          </mxGeometry>
        </mxCell>
        <mxCell id="SyRuRjjnVnQmzEbLA03D-21" value="quizEnded" style="edgeStyle=orthogonalEdgeStyle;shape=connector;rounded=0;orthogonalLoop=1;jettySize=auto;html=1;exitX=0.5;exitY=1;exitDx=0;exitDy=0;shadow=0;strokeColor=default;strokeWidth=1;align=center;verticalAlign=middle;fontFamily=Helvetica;fontSize=11;fontColor=default;labelBackgroundColor=none;endArrow=block;endFill=0;endSize=8;" edge="1" parent="WIyWlLk6GJQsqaUBKTNV-1" source="SyRuRjjnVnQmzEbLA03D-6" target="SyRuRjjnVnQmzEbLA03D-20">
          <mxGeometry y="30" relative="1" as="geometry">
            <mxPoint as="offset" />
          </mxGeometry>
        </mxCell>
        <mxCell id="SyRuRjjnVnQmzEbLA03D-23" value="resultsReady" style="edgeStyle=orthogonalEdgeStyle;shape=connector;rounded=0;orthogonalLoop=1;jettySize=auto;html=1;exitX=0;exitY=0.5;exitDx=0;exitDy=0;shadow=0;strokeColor=default;strokeWidth=1;align=center;verticalAlign=middle;fontFamily=Helvetica;fontSize=11;fontColor=default;labelBackgroundColor=none;endArrow=block;endFill=0;endSize=8;" edge="1" parent="WIyWlLk6GJQsqaUBKTNV-1" source="SyRuRjjnVnQmzEbLA03D-6" target="SyRuRjjnVnQmzEbLA03D-34">
          <mxGeometry x="-0.1111" y="-10" relative="1" as="geometry">
            <mxPoint x="80" y="460" as="targetPoint" />
            <mxPoint as="offset" />
          </mxGeometry>
        </mxCell>
        <mxCell id="SyRuRjjnVnQmzEbLA03D-6" value="Státusz?" style="rhombus;whiteSpace=wrap;html=1;shadow=0;fontFamily=Helvetica;fontSize=12;align=center;strokeWidth=1;spacing=6;spacingTop=-4;" vertex="1" parent="WIyWlLk6GJQsqaUBKTNV-1">
          <mxGeometry x="170" y="420" width="100" height="80" as="geometry" />
        </mxCell>
        <mxCell id="SyRuRjjnVnQmzEbLA03D-16" value="Igen" style="edgeStyle=orthogonalEdgeStyle;shape=connector;rounded=0;orthogonalLoop=1;jettySize=auto;html=1;exitX=1;exitY=0.5;exitDx=0;exitDy=0;shadow=0;strokeColor=default;strokeWidth=1;align=center;verticalAlign=middle;fontFamily=Helvetica;fontSize=11;fontColor=default;labelBackgroundColor=none;endArrow=block;endFill=0;endSize=8;" edge="1" parent="WIyWlLk6GJQsqaUBKTNV-1" source="SyRuRjjnVnQmzEbLA03D-14" target="SyRuRjjnVnQmzEbLA03D-17">
          <mxGeometry y="10" relative="1" as="geometry">
            <mxPoint x="520" y="460" as="targetPoint" />
            <mxPoint as="offset" />
          </mxGeometry>
        </mxCell>
        <mxCell id="SyRuRjjnVnQmzEbLA03D-19" value="Nem" style="edgeStyle=orthogonalEdgeStyle;shape=connector;rounded=0;orthogonalLoop=1;jettySize=auto;html=1;exitX=0.5;exitY=1;exitDx=0;exitDy=0;shadow=0;strokeColor=default;strokeWidth=1;align=center;verticalAlign=middle;fontFamily=Helvetica;fontSize=11;fontColor=default;labelBackgroundColor=none;endArrow=block;endFill=0;endSize=8;" edge="1" parent="WIyWlLk6GJQsqaUBKTNV-1" source="SyRuRjjnVnQmzEbLA03D-14" target="SyRuRjjnVnQmzEbLA03D-18">
          <mxGeometry x="0.3333" y="20" relative="1" as="geometry">
            <mxPoint as="offset" />
          </mxGeometry>
        </mxCell>
        <mxCell id="SyRuRjjnVnQmzEbLA03D-14" value="&amp;lt;10 perc&amp;nbsp;&lt;div&gt;maradt?&lt;/div&gt;" style="rhombus;whiteSpace=wrap;html=1;shadow=0;fontFamily=Helvetica;fontSize=12;align=center;strokeWidth=1;spacing=6;spacingTop=-4;" vertex="1" parent="WIyWlLk6GJQsqaUBKTNV-1">
          <mxGeometry x="370" y="420" width="100" height="80" as="geometry" />
        </mxCell>
        <mxCell id="SyRuRjjnVnQmzEbLA03D-26" value="Igen" style="edgeStyle=orthogonalEdgeStyle;shape=connector;rounded=0;orthogonalLoop=1;jettySize=auto;html=1;exitX=0.5;exitY=1;exitDx=0;exitDy=0;shadow=0;strokeColor=default;strokeWidth=1;align=center;verticalAlign=middle;fontFamily=Helvetica;fontSize=11;fontColor=default;labelBackgroundColor=none;endArrow=block;endFill=0;endSize=8;" edge="1" parent="WIyWlLk6GJQsqaUBKTNV-1" source="SyRuRjjnVnQmzEbLA03D-17">
          <mxGeometry x="-0.0909" y="-10" relative="1" as="geometry">
            <mxPoint x="420" y="520" as="targetPoint" />
            <Array as="points">
              <mxPoint x="620" y="520" />
            </Array>
            <mxPoint as="offset" />
          </mxGeometry>
        </mxCell>
        <mxCell id="SyRuRjjnVnQmzEbLA03D-39" value="Nem" style="edgeStyle=orthogonalEdgeStyle;shape=connector;rounded=0;orthogonalLoop=1;jettySize=auto;html=1;exitX=0.5;exitY=0;exitDx=0;exitDy=0;entryX=1;entryY=0.5;entryDx=0;entryDy=0;shadow=0;strokeColor=default;strokeWidth=1;align=center;verticalAlign=middle;fontFamily=Helvetica;fontSize=11;fontColor=default;labelBackgroundColor=none;endArrow=block;endFill=0;endSize=8;jumpStyle=arc;" edge="1" parent="WIyWlLk6GJQsqaUBKTNV-1" source="SyRuRjjnVnQmzEbLA03D-17" target="SyRuRjjnVnQmzEbLA03D-37">
          <mxGeometry x="-0.9355" y="-20" relative="1" as="geometry">
            <mxPoint as="offset" />
          </mxGeometry>
        </mxCell>
        <mxCell id="SyRuRjjnVnQmzEbLA03D-17" value="Biztos&amp;nbsp;&lt;div&gt;elkezdi?&lt;/div&gt;" style="rhombus;whiteSpace=wrap;html=1;shadow=0;fontFamily=Helvetica;fontSize=12;align=center;strokeWidth=1;spacing=6;spacingTop=-4;" vertex="1" parent="WIyWlLk6GJQsqaUBKTNV-1">
          <mxGeometry x="570" y="420" width="100" height="80" as="geometry" />
        </mxCell>
        <mxCell id="SyRuRjjnVnQmzEbLA03D-25" style="edgeStyle=orthogonalEdgeStyle;shape=connector;rounded=0;orthogonalLoop=1;jettySize=auto;html=1;exitX=0.5;exitY=1;exitDx=0;exitDy=0;shadow=0;strokeColor=default;strokeWidth=1;align=center;verticalAlign=middle;fontFamily=Helvetica;fontSize=11;fontColor=default;labelBackgroundColor=none;endArrow=block;endFill=0;endSize=8;" edge="1" parent="WIyWlLk6GJQsqaUBKTNV-1" source="SyRuRjjnVnQmzEbLA03D-18" target="SyRuRjjnVnQmzEbLA03D-24">
          <mxGeometry relative="1" as="geometry" />
        </mxCell>
        <mxCell id="SyRuRjjnVnQmzEbLA03D-54" style="shape=connector;rounded=0;orthogonalLoop=1;jettySize=auto;html=1;shadow=0;strokeColor=default;strokeWidth=1;align=center;verticalAlign=middle;fontFamily=Helvetica;fontSize=11;fontColor=default;labelBackgroundColor=none;endArrow=none;endFill=0;endSize=8;dashed=1;dashPattern=1 2;startFill=0;" edge="1" parent="WIyWlLk6GJQsqaUBKTNV-1" source="SyRuRjjnVnQmzEbLA03D-18" target="SyRuRjjnVnQmzEbLA03D-53">
          <mxGeometry relative="1" as="geometry" />
        </mxCell>
        <mxCell id="SyRuRjjnVnQmzEbLA03D-18" value="Kvíz elkezdése" style="rounded=1;whiteSpace=wrap;html=1;fontSize=12;glass=0;strokeWidth=1;shadow=0;" vertex="1" parent="WIyWlLk6GJQsqaUBKTNV-1">
          <mxGeometry x="360" y="560" width="120" height="40" as="geometry" />
        </mxCell>
        <mxCell id="SyRuRjjnVnQmzEbLA03D-47" style="edgeStyle=orthogonalEdgeStyle;shape=connector;rounded=0;orthogonalLoop=1;jettySize=auto;html=1;exitX=0;exitY=0.5;exitDx=0;exitDy=0;shadow=0;strokeColor=default;strokeWidth=1;align=center;verticalAlign=middle;fontFamily=Helvetica;fontSize=11;fontColor=default;labelBackgroundColor=none;endArrow=block;endFill=0;endSize=8;" edge="1" parent="WIyWlLk6GJQsqaUBKTNV-1" source="SyRuRjjnVnQmzEbLA03D-20" target="SyRuRjjnVnQmzEbLA03D-34">
          <mxGeometry relative="1" as="geometry" />
        </mxCell>
        <mxCell id="SyRuRjjnVnQmzEbLA03D-20" value="Várakozás eredményre" style="rounded=1;whiteSpace=wrap;html=1;fontSize=12;glass=0;strokeWidth=1;shadow=0;" vertex="1" parent="WIyWlLk6GJQsqaUBKTNV-1">
          <mxGeometry x="160" y="640" width="120" height="40" as="geometry" />
        </mxCell>
        <mxCell id="SyRuRjjnVnQmzEbLA03D-28" style="edgeStyle=orthogonalEdgeStyle;shape=connector;rounded=0;orthogonalLoop=1;jettySize=auto;html=1;exitX=0;exitY=0.5;exitDx=0;exitDy=0;shadow=0;strokeColor=default;strokeWidth=1;align=center;verticalAlign=middle;fontFamily=Helvetica;fontSize=11;fontColor=default;labelBackgroundColor=none;endArrow=block;endFill=0;endSize=8;" edge="1" parent="WIyWlLk6GJQsqaUBKTNV-1" source="SyRuRjjnVnQmzEbLA03D-24" target="SyRuRjjnVnQmzEbLA03D-20">
          <mxGeometry relative="1" as="geometry" />
        </mxCell>
        <mxCell id="SyRuRjjnVnQmzEbLA03D-52" style="shape=connector;rounded=0;orthogonalLoop=1;jettySize=auto;html=1;shadow=0;strokeColor=default;strokeWidth=1;align=center;verticalAlign=middle;fontFamily=Helvetica;fontSize=11;fontColor=default;labelBackgroundColor=none;endArrow=none;endFill=0;endSize=8;dashed=1;dashPattern=1 2;startFill=0;" edge="1" parent="WIyWlLk6GJQsqaUBKTNV-1" source="SyRuRjjnVnQmzEbLA03D-24" target="SyRuRjjnVnQmzEbLA03D-51">
          <mxGeometry relative="1" as="geometry" />
        </mxCell>
        <mxCell id="SyRuRjjnVnQmzEbLA03D-24" value="Kvíz beadása" style="rounded=1;whiteSpace=wrap;html=1;fontSize=12;glass=0;strokeWidth=1;shadow=0;" vertex="1" parent="WIyWlLk6GJQsqaUBKTNV-1">
          <mxGeometry x="360" y="640" width="120" height="40" as="geometry" />
        </mxCell>
        <mxCell id="SyRuRjjnVnQmzEbLA03D-38" value="Nem" style="edgeStyle=orthogonalEdgeStyle;shape=connector;rounded=0;orthogonalLoop=1;jettySize=auto;html=1;exitX=0.5;exitY=0;exitDx=0;exitDy=0;shadow=0;strokeColor=default;strokeWidth=1;align=center;verticalAlign=middle;fontFamily=Helvetica;fontSize=11;fontColor=default;labelBackgroundColor=none;endArrow=block;endFill=0;endSize=8;" edge="1" parent="WIyWlLk6GJQsqaUBKTNV-1" source="SyRuRjjnVnQmzEbLA03D-34" target="SyRuRjjnVnQmzEbLA03D-37">
          <mxGeometry x="-0.3333" y="-20" relative="1" as="geometry">
            <mxPoint as="offset" />
          </mxGeometry>
        </mxCell>
        <mxCell id="SyRuRjjnVnQmzEbLA03D-41" value="Igen" style="edgeStyle=orthogonalEdgeStyle;shape=connector;rounded=0;orthogonalLoop=1;jettySize=auto;html=1;exitX=0;exitY=0.5;exitDx=0;exitDy=0;shadow=0;strokeColor=default;strokeWidth=1;align=center;verticalAlign=middle;fontFamily=Helvetica;fontSize=11;fontColor=default;labelBackgroundColor=none;endArrow=block;endFill=0;endSize=8;jumpStyle=arc;" edge="1" parent="WIyWlLk6GJQsqaUBKTNV-1" source="SyRuRjjnVnQmzEbLA03D-34" target="SyRuRjjnVnQmzEbLA03D-40">
          <mxGeometry x="-0.5556" y="-10" relative="1" as="geometry">
            <mxPoint as="offset" />
          </mxGeometry>
        </mxCell>
        <mxCell id="SyRuRjjnVnQmzEbLA03D-34" value="Van&amp;nbsp;&lt;div&gt;eredmény?&lt;/div&gt;" style="rhombus;whiteSpace=wrap;html=1;shadow=0;fontFamily=Helvetica;fontSize=12;align=center;strokeWidth=1;spacing=6;spacingTop=-4;" vertex="1" parent="WIyWlLk6GJQsqaUBKTNV-1">
          <mxGeometry x="-30" y="420" width="100" height="80" as="geometry" />
        </mxCell>
        <mxCell id="SyRuRjjnVnQmzEbLA03D-46" style="edgeStyle=orthogonalEdgeStyle;shape=connector;rounded=0;orthogonalLoop=1;jettySize=auto;html=1;exitX=0.5;exitY=0;exitDx=0;exitDy=0;shadow=0;strokeColor=default;strokeWidth=1;align=center;verticalAlign=middle;fontFamily=Helvetica;fontSize=11;fontColor=default;labelBackgroundColor=none;endArrow=block;endFill=0;endSize=8;" edge="1" parent="WIyWlLk6GJQsqaUBKTNV-1" source="SyRuRjjnVnQmzEbLA03D-37">
          <mxGeometry relative="1" as="geometry">
            <mxPoint x="220" y="300" as="targetPoint" />
            <Array as="points">
              <mxPoint x="20" y="300" />
            </Array>
          </mxGeometry>
        </mxCell>
        <mxCell id="SyRuRjjnVnQmzEbLA03D-57" style="shape=connector;rounded=0;orthogonalLoop=1;jettySize=auto;html=1;shadow=0;strokeColor=default;strokeWidth=1;align=center;verticalAlign=middle;fontFamily=Helvetica;fontSize=11;fontColor=default;labelBackgroundColor=none;endArrow=none;endFill=0;endSize=8;dashed=1;dashPattern=1 2;startFill=0;" edge="1" parent="WIyWlLk6GJQsqaUBKTNV-1" source="SyRuRjjnVnQmzEbLA03D-37" target="SyRuRjjnVnQmzEbLA03D-55">
          <mxGeometry relative="1" as="geometry" />
        </mxCell>
        <mxCell id="SyRuRjjnVnQmzEbLA03D-37" value="Várakozás új eventre" style="rounded=1;whiteSpace=wrap;html=1;fontSize=12;glass=0;strokeWidth=1;shadow=0;" vertex="1" parent="WIyWlLk6GJQsqaUBKTNV-1">
          <mxGeometry x="-40" y="320" width="120" height="40" as="geometry" />
        </mxCell>
        <mxCell id="SyRuRjjnVnQmzEbLA03D-48" style="edgeStyle=orthogonalEdgeStyle;shape=connector;rounded=0;orthogonalLoop=1;jettySize=auto;html=1;exitX=0.5;exitY=0;exitDx=0;exitDy=0;entryX=0;entryY=0.5;entryDx=0;entryDy=0;shadow=0;strokeColor=default;strokeWidth=1;align=center;verticalAlign=middle;fontFamily=Helvetica;fontSize=11;fontColor=default;labelBackgroundColor=none;endArrow=block;endFill=0;endSize=8;" edge="1" parent="WIyWlLk6GJQsqaUBKTNV-1" source="SyRuRjjnVnQmzEbLA03D-40" target="SyRuRjjnVnQmzEbLA03D-37">
          <mxGeometry relative="1" as="geometry" />
        </mxCell>
        <mxCell id="SyRuRjjnVnQmzEbLA03D-40" value="Eredmény megtekintése" style="rounded=1;whiteSpace=wrap;html=1;fontSize=12;glass=0;strokeWidth=1;shadow=0;" vertex="1" parent="WIyWlLk6GJQsqaUBKTNV-1">
          <mxGeometry x="-240" y="440" width="120" height="40" as="geometry" />
        </mxCell>
        <mxCell id="SyRuRjjnVnQmzEbLA03D-49" value="getAnswers" style="shape=note2;boundedLbl=1;whiteSpace=wrap;html=1;size=25;verticalAlign=top;align=center;fontFamily=Helvetica;fontSize=11;fontColor=#333333;labelBackgroundColor=none;fillColor=#f5f5f5;strokeColor=#666666;" vertex="1" parent="WIyWlLk6GJQsqaUBKTNV-1">
          <mxGeometry x="-280" y="260" width="120" height="60" as="geometry" />
        </mxCell>
        <mxCell id="SyRuRjjnVnQmzEbLA03D-50" style="shape=connector;rounded=0;orthogonalLoop=1;jettySize=auto;html=1;shadow=0;strokeColor=default;strokeWidth=1;align=center;verticalAlign=middle;fontFamily=Helvetica;fontSize=11;fontColor=default;labelBackgroundColor=none;endArrow=none;endFill=0;endSize=8;dashed=1;dashPattern=1 2;startFill=0;" edge="1" parent="WIyWlLk6GJQsqaUBKTNV-1" source="SyRuRjjnVnQmzEbLA03D-34" target="SyRuRjjnVnQmzEbLA03D-49">
          <mxGeometry relative="1" as="geometry" />
        </mxCell>
        <mxCell id="SyRuRjjnVnQmzEbLA03D-51" value="uploadAnswers" style="shape=note2;boundedLbl=1;whiteSpace=wrap;html=1;size=25;verticalAlign=top;align=center;fontFamily=Helvetica;fontSize=11;fontColor=#333333;labelBackgroundColor=none;fillColor=#f5f5f5;strokeColor=#666666;" vertex="1" parent="WIyWlLk6GJQsqaUBKTNV-1">
          <mxGeometry x="680" y="580" width="120" height="60" as="geometry" />
        </mxCell>
        <mxCell id="SyRuRjjnVnQmzEbLA03D-53" value="getQuestions" style="shape=note2;boundedLbl=1;whiteSpace=wrap;html=1;size=25;verticalAlign=top;align=center;fontFamily=Helvetica;fontSize=11;fontColor=#333333;labelBackgroundColor=none;fillColor=#f5f5f5;strokeColor=#666666;" vertex="1" parent="WIyWlLk6GJQsqaUBKTNV-1">
          <mxGeometry x="680" y="500" width="120" height="60" as="geometry" />
        </mxCell>
        <mxCell id="SyRuRjjnVnQmzEbLA03D-55" value="status&lt;div&gt;&amp;nbsp;API/WebSocket&lt;/div&gt;" style="shape=note2;boundedLbl=1;whiteSpace=wrap;html=1;size=25;verticalAlign=top;align=center;fontFamily=Helvetica;fontSize=11;fontColor=#333333;labelBackgroundColor=none;fillColor=#f5f5f5;strokeColor=#666666;" vertex="1" parent="WIyWlLk6GJQsqaUBKTNV-1">
          <mxGeometry x="-280" y="580" width="120" height="60" as="geometry" />
        </mxCell>
        <mxCell id="SyRuRjjnVnQmzEbLA03D-56" style="shape=connector;rounded=0;orthogonalLoop=1;jettySize=auto;html=1;shadow=0;strokeColor=default;strokeWidth=1;align=center;verticalAlign=middle;fontFamily=Helvetica;fontSize=11;fontColor=default;labelBackgroundColor=none;endArrow=none;endFill=0;endSize=8;dashed=1;dashPattern=1 2;startFill=0;" edge="1" parent="WIyWlLk6GJQsqaUBKTNV-1" source="SyRuRjjnVnQmzEbLA03D-6" target="SyRuRjjnVnQmzEbLA03D-55">
          <mxGeometry relative="1" as="geometry" />
        </mxCell>
      </root>
    </mxGraphModel>
  </diagram>
  <diagram id="aF0dCACozWTxWMmi1ZB-" name="2 oldal">
    <mxGraphModel dx="1272" dy="937" grid="1" gridSize="10" guides="1" tooltips="1" connect="1" arrows="1" fold="1" page="0" pageScale="1" pageWidth="1169" pageHeight="827" math="0" shadow="0">
      <root>
        <mxCell id="0" />
        <mxCell id="1" parent="0" />
        <mxCell id="D5e0oB6jKhGCuu_DoDYf-1" value="" style="shape=table;startSize=0;container=1;collapsible=0;childLayout=tableLayout;fontFamily=Helvetica;fontSize=11;fontColor=default;labelBackgroundColor=none;" vertex="1" parent="1">
          <mxGeometry x="-40" width="320" height="240" as="geometry" />
        </mxCell>
        <mxCell id="D5e0oB6jKhGCuu_DoDYf-2" value="" style="shape=tableRow;horizontal=0;startSize=0;swimlaneHead=0;swimlaneBody=0;strokeColor=inherit;top=0;left=0;bottom=0;right=0;collapsible=0;dropTarget=0;fillColor=none;points=[[0,0.5],[1,0.5]];portConstraint=eastwest;fontFamily=Helvetica;fontSize=11;fontColor=default;labelBackgroundColor=none;" vertex="1" parent="D5e0oB6jKhGCuu_DoDYf-1">
          <mxGeometry width="320" height="79" as="geometry" />
        </mxCell>
        <mxCell id="D5e0oB6jKhGCuu_DoDYf-3" value="" style="shape=partialRectangle;html=1;whiteSpace=wrap;connectable=0;overflow=hidden;top=0;left=0;bottom=0;right=0;pointerEvents=1;fontFamily=Helvetica;fontSize=11;labelBackgroundColor=none;" vertex="1" parent="D5e0oB6jKhGCuu_DoDYf-2">
          <mxGeometry width="80" height="79" as="geometry">
            <mxRectangle width="80" height="79" as="alternateBounds" />
          </mxGeometry>
        </mxCell>
        <mxCell id="D5e0oB6jKhGCuu_DoDYf-4" value="quizStarted" style="shape=partialRectangle;html=1;whiteSpace=wrap;connectable=0;strokeColor=#666666;overflow=hidden;fillColor=#f5f5f5;top=0;left=0;bottom=0;right=0;pointerEvents=1;fontFamily=Helvetica;fontSize=11;fontColor=#333333;labelBackgroundColor=none;fontStyle=1" vertex="1" parent="D5e0oB6jKhGCuu_DoDYf-2">
          <mxGeometry x="80" width="80" height="79" as="geometry">
            <mxRectangle width="80" height="79" as="alternateBounds" />
          </mxGeometry>
        </mxCell>
        <mxCell id="D5e0oB6jKhGCuu_DoDYf-5" value="quizEnded" style="shape=partialRectangle;html=1;whiteSpace=wrap;connectable=0;strokeColor=#666666;overflow=hidden;fillColor=#f5f5f5;top=0;left=0;bottom=0;right=0;pointerEvents=1;fontFamily=Helvetica;fontSize=11;fontColor=#333333;labelBackgroundColor=none;fontStyle=1" vertex="1" parent="D5e0oB6jKhGCuu_DoDYf-2">
          <mxGeometry x="160" width="80" height="79" as="geometry">
            <mxRectangle width="80" height="79" as="alternateBounds" />
          </mxGeometry>
        </mxCell>
        <mxCell id="D5e0oB6jKhGCuu_DoDYf-6" value="resultsReady" style="shape=partialRectangle;html=1;whiteSpace=wrap;connectable=0;strokeColor=#666666;overflow=hidden;fillColor=#f5f5f5;top=0;left=0;bottom=0;right=0;pointerEvents=1;fontFamily=Helvetica;fontSize=11;fontColor=#333333;labelBackgroundColor=none;fontStyle=1" vertex="1" parent="D5e0oB6jKhGCuu_DoDYf-2">
          <mxGeometry x="240" width="80" height="79" as="geometry">
            <mxRectangle width="80" height="79" as="alternateBounds" />
          </mxGeometry>
        </mxCell>
        <mxCell id="D5e0oB6jKhGCuu_DoDYf-7" value="" style="shape=tableRow;horizontal=0;startSize=0;swimlaneHead=0;swimlaneBody=0;strokeColor=inherit;top=0;left=0;bottom=0;right=0;collapsible=0;dropTarget=0;fillColor=none;points=[[0,0.5],[1,0.5]];portConstraint=eastwest;fontFamily=Helvetica;fontSize=11;fontColor=default;labelBackgroundColor=none;" vertex="1" parent="D5e0oB6jKhGCuu_DoDYf-1">
          <mxGeometry y="79" width="320" height="82" as="geometry" />
        </mxCell>
        <mxCell id="D5e0oB6jKhGCuu_DoDYf-8" value="Van" style="shape=partialRectangle;html=1;whiteSpace=wrap;connectable=0;strokeColor=#666666;overflow=hidden;fillColor=#f5f5f5;top=0;left=0;bottom=0;right=0;pointerEvents=1;fontFamily=Helvetica;fontSize=11;fontColor=#333333;labelBackgroundColor=none;fontStyle=1" vertex="1" parent="D5e0oB6jKhGCuu_DoDYf-7">
          <mxGeometry width="80" height="82" as="geometry">
            <mxRectangle width="80" height="82" as="alternateBounds" />
          </mxGeometry>
        </mxCell>
        <mxCell id="D5e0oB6jKhGCuu_DoDYf-9" value="Kvíz&amp;nbsp;&lt;div&gt;elkezdése&lt;/div&gt;" style="shape=partialRectangle;html=1;whiteSpace=wrap;connectable=0;strokeColor=#9673a6;overflow=hidden;fillColor=#e1d5e7;top=0;left=0;bottom=0;right=0;pointerEvents=1;fontFamily=Helvetica;fontSize=11;labelBackgroundColor=none;" vertex="1" parent="D5e0oB6jKhGCuu_DoDYf-7">
          <mxGeometry x="80" width="80" height="82" as="geometry">
            <mxRectangle width="80" height="82" as="alternateBounds" />
          </mxGeometry>
        </mxCell>
        <mxCell id="D5e0oB6jKhGCuu_DoDYf-10" value="Várakozás következő kvízre" style="shape=partialRectangle;html=1;whiteSpace=wrap;connectable=0;strokeColor=#6c8ebf;overflow=hidden;fillColor=#dae8fc;top=0;left=0;bottom=0;right=0;pointerEvents=1;fontFamily=Helvetica;fontSize=11;labelBackgroundColor=none;" vertex="1" parent="D5e0oB6jKhGCuu_DoDYf-7">
          <mxGeometry x="160" width="80" height="82" as="geometry">
            <mxRectangle width="80" height="82" as="alternateBounds" />
          </mxGeometry>
        </mxCell>
        <mxCell id="D5e0oB6jKhGCuu_DoDYf-11" value="Eredmény megtekintése" style="shape=partialRectangle;html=1;whiteSpace=wrap;connectable=0;strokeColor=#82b366;overflow=hidden;fillColor=#d5e8d4;top=0;left=0;bottom=0;right=0;pointerEvents=1;fontFamily=Helvetica;fontSize=11;labelBackgroundColor=none;" vertex="1" parent="D5e0oB6jKhGCuu_DoDYf-7">
          <mxGeometry x="240" width="80" height="82" as="geometry">
            <mxRectangle width="80" height="82" as="alternateBounds" />
          </mxGeometry>
        </mxCell>
        <mxCell id="D5e0oB6jKhGCuu_DoDYf-12" value="" style="shape=tableRow;horizontal=0;startSize=0;swimlaneHead=0;swimlaneBody=0;strokeColor=inherit;top=0;left=0;bottom=0;right=0;collapsible=0;dropTarget=0;fillColor=none;points=[[0,0.5],[1,0.5]];portConstraint=eastwest;fontFamily=Helvetica;fontSize=11;fontColor=default;labelBackgroundColor=none;" vertex="1" parent="D5e0oB6jKhGCuu_DoDYf-1">
          <mxGeometry y="161" width="320" height="79" as="geometry" />
        </mxCell>
        <mxCell id="D5e0oB6jKhGCuu_DoDYf-13" value="Nincs" style="shape=partialRectangle;html=1;whiteSpace=wrap;connectable=0;strokeColor=#666666;overflow=hidden;fillColor=#f5f5f5;top=0;left=0;bottom=0;right=0;pointerEvents=1;fontFamily=Helvetica;fontSize=11;fontColor=#333333;labelBackgroundColor=none;fontStyle=1" vertex="1" parent="D5e0oB6jKhGCuu_DoDYf-12">
          <mxGeometry width="80" height="79" as="geometry">
            <mxRectangle width="80" height="79" as="alternateBounds" />
          </mxGeometry>
        </mxCell>
        <mxCell id="D5e0oB6jKhGCuu_DoDYf-14" value="Kvíz&amp;nbsp;&lt;div&gt;elkezdése&lt;/div&gt;" style="shape=partialRectangle;html=1;whiteSpace=wrap;connectable=0;strokeColor=#9673a6;overflow=hidden;fillColor=#e1d5e7;top=0;left=0;bottom=0;right=0;pointerEvents=1;fontFamily=Helvetica;fontSize=11;labelBackgroundColor=none;" vertex="1" parent="D5e0oB6jKhGCuu_DoDYf-12">
          <mxGeometry x="80" width="80" height="79" as="geometry">
            <mxRectangle width="80" height="79" as="alternateBounds" />
          </mxGeometry>
        </mxCell>
        <mxCell id="D5e0oB6jKhGCuu_DoDYf-15" value="Várakozás következő kvízre" style="shape=partialRectangle;html=1;whiteSpace=wrap;connectable=0;strokeColor=#6c8ebf;overflow=hidden;fillColor=#dae8fc;top=0;left=0;bottom=0;right=0;pointerEvents=1;fontFamily=Helvetica;fontSize=11;labelBackgroundColor=none;" vertex="1" parent="D5e0oB6jKhGCuu_DoDYf-12">
          <mxGeometry x="160" width="80" height="79" as="geometry">
            <mxRectangle width="80" height="79" as="alternateBounds" />
          </mxGeometry>
        </mxCell>
        <mxCell id="D5e0oB6jKhGCuu_DoDYf-16" value="Várakozás következő kvízre" style="shape=partialRectangle;html=1;whiteSpace=wrap;connectable=0;strokeColor=#6c8ebf;overflow=hidden;fillColor=#dae8fc;top=0;left=0;bottom=0;right=0;pointerEvents=1;fontFamily=Helvetica;fontSize=11;labelBackgroundColor=none;" vertex="1" parent="D5e0oB6jKhGCuu_DoDYf-12">
          <mxGeometry x="240" width="80" height="79" as="geometry">
            <mxRectangle width="80" height="79" as="alternateBounds" />
          </mxGeometry>
        </mxCell>
        <mxCell id="D5e0oB6jKhGCuu_DoDYf-17" value="EVENT" style="rounded=0;whiteSpace=wrap;html=1;fontFamily=Helvetica;fontSize=11;fontColor=#333333;labelBackgroundColor=none;fillColor=#f5f5f5;strokeColor=#666666;fontStyle=1" vertex="1" parent="1">
          <mxGeometry x="40" y="-40" width="240" height="40" as="geometry" />
        </mxCell>
        <mxCell id="D5e0oB6jKhGCuu_DoDYf-18" value="teamID" style="rounded=0;whiteSpace=wrap;html=1;fontFamily=Helvetica;fontSize=11;fontColor=#333333;labelBackgroundColor=none;fillColor=#f5f5f5;strokeColor=#666666;horizontal=0;fontStyle=1" vertex="1" parent="1">
          <mxGeometry x="-80" y="80" width="40" height="160" as="geometry" />
        </mxCell>
        <mxCell id="kpv8SrAgbzQBB_HcdlBQ-1" value="quizStarted" style="rounded=0;whiteSpace=wrap;html=1;fontFamily=Helvetica;fontSize=11;fontColor=default;labelBackgroundColor=none;" vertex="1" parent="1">
          <mxGeometry x="40" y="260" width="160" height="60" as="geometry" />
        </mxCell>
        <mxCell id="rtyyr8bB59c5O8A7wW0q-5" value="Igen" style="edgeStyle=orthogonalEdgeStyle;shape=connector;rounded=0;orthogonalLoop=1;jettySize=auto;html=1;exitX=0.5;exitY=1;exitDx=0;exitDy=0;shadow=0;strokeColor=default;strokeWidth=1;align=center;verticalAlign=middle;fontFamily=Helvetica;fontSize=11;fontColor=default;labelBackgroundColor=none;endArrow=block;endFill=0;endSize=8;" edge="1" parent="1" source="rtyyr8bB59c5O8A7wW0q-1" target="rtyyr8bB59c5O8A7wW0q-4">
          <mxGeometry y="20" relative="1" as="geometry">
            <mxPoint as="offset" />
          </mxGeometry>
        </mxCell>
        <mxCell id="rtyyr8bB59c5O8A7wW0q-1" value="Popup új kvízről" style="rounded=1;whiteSpace=wrap;html=1;fontFamily=Helvetica;fontSize=11;fontColor=default;labelBackgroundColor=none;" vertex="1" parent="1">
          <mxGeometry x="60" y="340" width="120" height="40" as="geometry" />
        </mxCell>
        <mxCell id="rtyyr8bB59c5O8A7wW0q-4" value="Kvíz elkezdése" style="rounded=1;whiteSpace=wrap;html=1;fontFamily=Helvetica;fontSize=11;fontColor=default;labelBackgroundColor=none;" vertex="1" parent="1">
          <mxGeometry x="60" y="420" width="120" height="40" as="geometry" />
        </mxCell>
        <mxCell id="rtyyr8bB59c5O8A7wW0q-6" value="Van&amp;nbsp;&lt;div&gt;teamID&lt;/div&gt;" style="rounded=0;whiteSpace=wrap;html=1;fontFamily=Helvetica;fontSize=11;fontColor=default;labelBackgroundColor=none;" vertex="1" parent="1">
          <mxGeometry x="-20" y="320" width="60" height="160" as="geometry" />
        </mxCell>
        <mxCell id="rtyyr8bB59c5O8A7wW0q-7" value="quizEnded" style="rounded=0;whiteSpace=wrap;html=1;fontFamily=Helvetica;fontSize=11;fontColor=default;labelBackgroundColor=none;" vertex="1" parent="1">
          <mxGeometry x="200" y="260" width="160" height="60" as="geometry" />
        </mxCell>
        <mxCell id="rtyyr8bB59c5O8A7wW0q-8" value="-" style="rounded=1;whiteSpace=wrap;html=1;fontFamily=Helvetica;fontSize=11;fontColor=default;labelBackgroundColor=none;" vertex="1" parent="1">
          <mxGeometry x="220" y="380" width="120" height="40" as="geometry" />
        </mxCell>
        <mxCell id="rtyyr8bB59c5O8A7wW0q-9" value="resultsReady" style="rounded=0;whiteSpace=wrap;html=1;fontFamily=Helvetica;fontSize=11;fontColor=default;labelBackgroundColor=none;" vertex="1" parent="1">
          <mxGeometry x="360" y="260" width="160" height="60" as="geometry" />
        </mxCell>
        <mxCell id="rtyyr8bB59c5O8A7wW0q-10" value="Eredmény megjelenítése" style="rounded=1;whiteSpace=wrap;html=1;fontFamily=Helvetica;fontSize=11;fontColor=default;labelBackgroundColor=none;" vertex="1" parent="1">
          <mxGeometry x="380" y="380" width="120" height="40" as="geometry" />
        </mxCell>
        <mxCell id="rtyyr8bB59c5O8A7wW0q-12" value="Nincs&amp;nbsp;&lt;div&gt;teamID&lt;/div&gt;" style="rounded=0;whiteSpace=wrap;html=1;fontFamily=Helvetica;fontSize=11;fontColor=default;labelBackgroundColor=none;" vertex="1" parent="1">
          <mxGeometry x="-20" y="480" width="60" height="160" as="geometry" />
        </mxCell>
        <mxCell id="rtyyr8bB59c5O8A7wW0q-13" value="Kvíz elkezdése" style="rounded=1;whiteSpace=wrap;html=1;fontFamily=Helvetica;fontSize=11;fontColor=default;labelBackgroundColor=none;" vertex="1" parent="1">
          <mxGeometry x="60" y="540" width="120" height="40" as="geometry" />
        </mxCell>
        <mxCell id="rtyyr8bB59c5O8A7wW0q-15" value="Várakozás a kvízre" style="rounded=1;whiteSpace=wrap;html=1;fontFamily=Helvetica;fontSize=11;fontColor=default;labelBackgroundColor=none;" vertex="1" parent="1">
          <mxGeometry x="220" y="540" width="120" height="40" as="geometry" />
        </mxCell>
        <mxCell id="rtyyr8bB59c5O8A7wW0q-16" value="Várakozás a kvízre" style="rounded=1;whiteSpace=wrap;html=1;fontFamily=Helvetica;fontSize=11;fontColor=default;labelBackgroundColor=none;" vertex="1" parent="1">
          <mxGeometry x="380" y="540" width="120" height="40" as="geometry" />
        </mxCell>
      </root>
    </mxGraphModel>
  </diagram>
  <diagram id="VUKelxHRwBX1d3KkUzN6" name="3 oldal">
    <mxGraphModel dx="872" dy="537" grid="1" gridSize="10" guides="1" tooltips="1" connect="1" arrows="1" fold="1" page="0" pageScale="1" pageWidth="1169" pageHeight="827" math="0" shadow="0">
      <root>
        <mxCell id="0" />
        <mxCell id="1" parent="0" />
      </root>
    </mxGraphModel>
  </diagram>
</mxfile>
